<svg width="368" height="298" viewBox="0 0 368 298" fill="none" xmlns="http://www.w3.org/2000/svg">
<path d="M88.9356 244.065C113.264 268.389 146.87 283.433 183.991 283.433V292.656C183.991 294.515 185.519 296.039 187.374 295.999C265.883 294.227 329.227 230.898 330.999 152.374C331.042 150.515 329.518 148.988 327.656 148.988H318.432C318.432 74.7377 258.237 14.5426 183.987 14.5426V5.34402C183.987 3.47842 182.463 1.95432 180.605 2.00105C142.567 2.86015 108.08 18.1731 82.4365 42.6595C81.0922 43.9392 81.0922 46.0923 82.4042 47.408L88.9104 53.9321C64.5894 78.2603 49.5424 111.866 49.5424 148.988H40.3439C38.4855 148.988 36.9578 150.515 37.0009 152.374C37.86 190.408 53.1766 224.898 77.6629 250.542C78.9426 251.89 81.0922 251.886 82.4114 250.574L88.9356 244.068V244.065Z" fill="#B880FF"/>
<mask id="mask0_8368_5834" style="mask-type:luminance" maskUnits="userSpaceOnUse" x="37" y="2" width="294" height="294">
<path d="M88.9356 244.065C113.264 268.389 146.87 283.433 183.991 283.433V292.656C183.991 294.515 185.519 296.039 187.374 295.999C265.883 294.227 329.227 230.898 330.999 152.374C331.042 150.515 329.518 148.988 327.656 148.988H318.432C318.432 74.7377 258.237 14.5426 183.987 14.5426V5.34402C183.987 3.47842 182.463 1.95432 180.605 2.00105C142.567 2.86015 108.08 18.1731 82.4365 42.6595C81.0922 43.9392 81.0922 46.0923 82.4042 47.408L88.9104 53.9321C64.5894 78.2603 49.5424 111.866 49.5424 148.988H40.3439C38.4855 148.988 36.9578 150.515 37.0009 152.374C37.86 190.408 53.1766 224.898 77.6629 250.542C78.9426 251.89 81.0922 251.886 82.4114 250.574L88.9356 244.068V244.065Z" fill="white"/>
</mask>
<g mask="url(#mask0_8368_5834)">
<path d="M244.276 43.6516L254.966 32.458C254.966 32.458 244.359 23.0258 233.039 16.3578C221.72 9.68987 201.468 9.04285 201.468 9.04285L244.276 43.6552V43.6516Z" fill="black" stroke="black" stroke-width="1.2" stroke-linecap="round" stroke-linejoin="round"/>
<path d="M182.348 22.3969L195.203 10.6353C195.203 10.6353 204.61 4.40951 223.478 16.3579C242.346 28.3064 244.272 43.6517 244.272 43.6517L230.016 58.4938L182.345 22.3933L182.348 22.3969Z" fill="white" stroke="black" stroke-width="1.2" stroke-linecap="round" stroke-linejoin="round"/>
<path d="M238.866 31.0058C244.61 40.7616 233.568 54.2269 223.557 45.3878" stroke="black" stroke-width="1.2" stroke-linecap="round" stroke-linejoin="round"/>
<path d="M230.847 42.983C233.36 42.983 235.397 40.9456 235.397 38.4323C235.397 35.919 233.36 33.8815 230.847 33.8815C228.333 33.8815 226.296 35.919 226.296 38.4323C226.296 40.9456 228.333 42.983 230.847 42.983Z" fill="#B880FF"/>
</g>
<path d="M88.9356 244.065C113.264 268.389 146.87 283.433 183.991 283.433V292.656C183.991 294.515 185.519 296.039 187.373 295.999C265.883 294.227 329.227 230.898 330.999 152.374C331.042 150.515 329.518 148.988 327.656 148.988H318.432C318.432 74.7377 258.237 14.5426 183.987 14.5426V5.34402C183.987 3.47842 182.463 1.95432 180.605 2.00105C142.567 2.86015 108.08 18.1731 82.4365 42.6595C81.0922 43.9392 81.0922 46.0923 82.4042 47.408L88.9104 53.9321C64.5894 78.2603 49.5424 111.866 49.5424 148.988H40.3439C38.4855 148.988 36.9578 150.515 37.0009 152.374C37.86 190.408 53.1766 224.898 77.6629 250.542C78.9426 251.89 81.0922 251.886 82.4114 250.574L88.9356 244.068V244.065Z" stroke="white" stroke-width="2" stroke-linecap="round" stroke-linejoin="round"/>
<path d="M325.345 172.963V163.056L317.268 167.021L204.164 111.945C202.323 111.05 200.156 111.132 198.391 112.171L61.4909 192.683L52.3822 190.282L52.375 200.379C52.375 201.752 53.0472 203.125 54.3952 203.916L176.324 275.499C178.383 276.707 180.961 276.606 182.916 275.236L323.641 176.888C325 175.939 325.392 174.53 325.341 172.959L325.345 172.963Z" fill="#B880FF"/>
<mask id="mask1_8368_5834" style="mask-type:luminance" maskUnits="userSpaceOnUse" x="52" y="111" width="274" height="166">
<path d="M325.345 172.962V163.055L317.268 167.02L204.164 111.944C202.323 111.049 200.156 111.132 198.391 112.17L61.4909 192.682L52.3822 190.281L52.375 200.378C52.375 201.751 53.0472 203.124 54.3952 203.915L176.324 275.498C178.383 276.706 180.961 276.605 182.916 275.235L323.641 176.887C325 175.938 325.392 174.529 325.341 172.959L325.345 172.962Z" fill="white"/>
</mask>
<g mask="url(#mask1_8368_5834)">
<path d="M52.3822 190.281V201.637L53.9027 203.574L176.654 275.675V265.768L54.3988 194.005L52.3822 190.281Z" fill="white"/>
<path d="M179.031 266.415V276.325L181.09 276.102V266.196L179.031 266.415Z" fill="white"/>
</g>
<path d="M325.345 172.963V163.056L317.268 167.021L204.164 111.945C202.323 111.05 200.156 111.132 198.391 112.171L61.4909 192.683L52.3822 190.282L52.375 200.379C52.375 201.752 53.0472 203.125 54.3952 203.916L176.324 275.499C178.383 276.707 180.961 276.606 182.916 275.236L323.641 176.888C325 175.939 325.392 174.53 325.341 172.959L325.345 172.963Z" stroke="black" stroke-width="1.2" stroke-linecap="round" stroke-linejoin="round"/>
<path d="M54.3987 194.006L176.327 265.589C178.387 266.797 180.964 266.696 182.92 265.327L323.645 166.979C326.204 165.188 325.898 161.31 323.091 159.94L204.167 102.028C202.327 101.133 200.159 101.215 198.395 102.254L54.3951 186.947C51.7028 188.532 51.7028 192.425 54.3951 194.006H54.3987Z" fill="#B880FF" stroke="black" stroke-width="1.2" stroke-linecap="round" stroke-linejoin="round"/>
<path d="M69.9238 203.122L221.037 110.252L323.091 159.948C323.091 159.948 325.345 160.616 325.345 163.057C325.345 165.498 323.645 166.986 323.645 166.986L182.92 265.334C182.92 265.334 181.521 266.524 179.958 266.437C178.394 266.351 176.324 265.596 176.324 265.596L69.9202 203.126L69.9238 203.122Z" fill="black"/>
<path d="M69.0143 194.247C72.2661 194.247 74.9022 192.551 74.9022 190.458C74.9022 188.366 72.2661 186.67 69.0143 186.67C65.7625 186.67 63.1263 188.366 63.1263 190.458C63.1263 192.551 65.7625 194.247 69.0143 194.247Z" fill="black" stroke="black" stroke-width="1.2" stroke-linecap="round" stroke-linejoin="round"/>
<path d="M81.6565 186.954C84.9083 186.954 87.5444 185.257 87.5444 183.165C87.5444 181.073 84.9083 179.376 81.6565 179.376C78.4047 179.376 75.7686 181.073 75.7686 183.165C75.7686 185.257 78.4047 186.954 81.6565 186.954Z" fill="#B880FF" stroke="white" stroke-width="1.2" stroke-linecap="round" stroke-linejoin="round"/>
<path d="M257.188 122.143L156.575 136.763L154.803 158.618L250.477 143.474L257.188 122.143Z" fill="#B880FF" stroke="black" stroke-width="1.2" stroke-linecap="round" stroke-linejoin="round"/>
<path d="M93.7379 179.7C96.9897 179.7 99.6259 178.004 99.6259 175.911C99.6259 173.819 96.9897 172.123 93.7379 172.123C90.4861 172.123 87.85 173.819 87.85 175.911C87.85 178.004 90.4861 179.7 93.7379 179.7Z" fill="white" stroke="white" stroke-width="1.2" stroke-linecap="round" stroke-linejoin="round"/>
<path d="M138.113 126.838L131.909 152.162L191.029 164.042L202.924 142.384L138.113 126.838Z" fill="#B880FF" stroke="black" stroke-width="1.2" stroke-linecap="round" stroke-linejoin="round"/>
<path d="M120.086 140.257L191.029 164.042L168.455 260.956L97.2499 219.183L120.086 140.257Z" fill="white"/>
<mask id="mask2_8368_5834" style="mask-type:luminance" maskUnits="userSpaceOnUse" x="97" y="140" width="95" height="121">
<path d="M120.086 140.258L191.029 164.043L168.455 260.957L97.2499 219.184L120.086 140.258Z" fill="white"/>
</mask>
<g mask="url(#mask2_8368_5834)">
<path d="M98.526 214.773L123.357 225.463L134.979 189.431L127.132 236.711L97.2499 219.183L98.526 214.773Z" fill="#B880FF"/>
<path d="M134.623 191.573L137.621 173.518L118.828 179.373L123.167 182.724C121.28 185.729 116.97 193.957 119.5 203.144C122.301 213.321 131.24 214.151 131.24 214.151L132.33 205.398C132.33 205.398 127.383 203.745 127.132 197.526C126.959 193.238 128.598 189.435 130.18 188.137L134.627 191.57L134.623 191.573Z" fill="#B880FF" stroke="#B880FF" stroke-width="1.2" stroke-linecap="round" stroke-linejoin="round"/>
</g>
<path d="M120.086 140.257L191.029 164.042L168.455 260.956L97.2499 219.183L120.086 140.257Z" stroke="black" stroke-width="1.2" stroke-linecap="round" stroke-linejoin="round"/>
<path d="M250.477 143.474L154.803 158.618L169.771 227.925L254.538 215.279L271.933 203.122L250.477 143.474Z" fill="white"/>
<mask id="mask3_8368_5834" style="mask-type:luminance" maskUnits="userSpaceOnUse" x="154" y="143" width="118" height="85">
<path d="M250.477 143.474L154.803 158.618L169.771 227.925L254.538 215.279L271.933 203.122L250.477 143.474Z" fill="white"/>
</mask>
<g mask="url(#mask3_8368_5834)">
<path d="M228.007 149.175L236.059 210.887L271.933 203.122L254.538 215.279L228.007 219.093V149.175Z" fill="#B880FF"/>
<path d="M227.701 169.736L246.799 161.91L237.317 196.037L227.701 186.382V169.736Z" fill="#B880FF"/>
<path d="M233.639 192.342L230.537 168.575L227.701 169.736V195.663L232.874 191.573L233.639 192.342Z" fill="black"/>
</g>
<path d="M250.477 143.474L154.803 158.618L169.771 227.925L254.538 215.279L271.933 203.122L250.477 143.474Z" stroke="black" stroke-width="1.2" stroke-linecap="round" stroke-linejoin="round"/>
<path d="M138.113 126.838L133.706 144.821L120.086 140.256L138.113 126.838Z" fill="black" stroke="black" stroke-width="1.2" stroke-linecap="round" stroke-linejoin="round"/>
<path d="M151.783 133.211L228.007 146.885V233.82L209.25 246.926L144.138 233.838L151.783 133.211Z" fill="#B880FF" stroke="black" stroke-width="1.2" stroke-linecap="round" stroke-linejoin="round"/>
<path d="M216.687 156.357L209.25 246.926V246.933L182.92 265.33C180.961 266.7 178.387 266.8 176.327 265.596L127.132 236.714L142.725 142.773L216.687 156.357Z" fill="white"/>
<mask id="mask4_8368_5834" style="mask-type:luminance" maskUnits="userSpaceOnUse" x="127" y="142" width="90" height="125">
<path d="M216.687 156.357L209.25 246.926V246.933L182.92 265.33C180.961 266.7 178.387 266.8 176.327 265.596L127.132 236.714L142.725 142.773L216.687 156.357Z" fill="white"/>
</mask>
<g mask="url(#mask4_8368_5834)">
<path d="M127.811 232.623L191.213 259.532L179.997 268.051L127.132 236.71L127.811 232.623Z" fill="#B880FF"/>
</g>
<path d="M216.687 156.357L209.25 246.926V246.933L182.92 265.33C180.961 266.7 178.387 266.8 176.327 265.596L127.132 236.714L142.725 142.773L216.687 156.357Z" stroke="black" stroke-width="1.2" stroke-linecap="round" stroke-linejoin="round"/>
<path d="M228.007 146.885L218.323 149.8L216.687 156.357L209.25 246.926L228.007 233.82V146.885Z" fill="#B880FF" stroke="black" stroke-width="1.2" stroke-linecap="round" stroke-linejoin="round"/>
<path d="M153.419 139.688V144.735L142.725 142.773L153.419 139.688Z" fill="black" stroke="black" stroke-width="1.2" stroke-linecap="round" stroke-linejoin="round"/>
<path d="M151.783 133.211L153.419 139.689L149.853 140.717L151.783 133.211Z" fill="white" stroke="black" stroke-width="1.2" stroke-linecap="round" stroke-linejoin="round"/>
<path d="M218.323 149.8L215.681 235.599L228.007 233.82L209.25 246.926L216.687 156.356L218.323 149.8Z" fill="black"/>
<path d="M250.477 143.474L257.188 122.143L287.21 183.924L283.755 194.858L271.933 203.122L250.477 143.474Z" fill="#B880FF" stroke="black" stroke-width="1.2" stroke-linecap="round" stroke-linejoin="round"/>
<path d="M169.584 156.73C170.868 156.73 171.91 155.689 171.91 154.405C171.91 153.12 170.868 152.079 169.584 152.079C168.299 152.079 167.258 153.12 167.258 154.405C167.258 155.689 168.299 156.73 169.584 156.73Z" fill="#B880FF" stroke="black" stroke-width="1.2" stroke-linecap="round" stroke-linejoin="round"/>
<path d="M188.883 160.548C190.168 160.548 191.209 159.506 191.209 158.222C191.209 156.938 190.168 155.896 188.883 155.896C187.599 155.896 186.557 156.938 186.557 158.222C186.557 159.506 187.599 160.548 188.883 160.548Z" fill="#B880FF" stroke="black" stroke-width="1.2" stroke-linecap="round" stroke-linejoin="round"/>
<path d="M178.204 146.047C179.403 146.047 180.375 145.075 180.375 143.876C180.375 142.677 179.403 141.705 178.204 141.705C177.005 141.705 176.033 142.677 176.033 143.876C176.033 145.075 177.005 146.047 178.204 146.047Z" fill="#B880FF" stroke="black" stroke-width="1.2" stroke-linecap="round" stroke-linejoin="round"/>
<path d="M195.465 149.175C196.664 149.175 197.636 148.203 197.636 147.004C197.636 145.804 196.664 144.832 195.465 144.832C194.266 144.832 193.294 145.804 193.294 147.004C193.294 148.203 194.266 149.175 195.465 149.175Z" fill="#B880FF" stroke="black" stroke-width="1.2" stroke-linecap="round" stroke-linejoin="round"/>
<path d="M214.775 136.011C215.831 136.011 216.687 135.155 216.687 134.099C216.687 133.043 215.831 132.186 214.775 132.186C213.719 132.186 212.863 133.043 212.863 134.099C212.863 135.155 213.719 136.011 214.775 136.011Z" fill="black" stroke="black" stroke-width="1.2" stroke-linecap="round" stroke-linejoin="round"/>
<path d="M195.465 138.358C196.521 138.358 197.377 137.502 197.377 136.446C197.377 135.39 196.521 134.534 195.465 134.534C194.409 134.534 193.553 135.39 193.553 136.446C193.553 137.502 194.409 138.358 195.465 138.358Z" fill="black" stroke="black" stroke-width="1.2" stroke-linecap="round" stroke-linejoin="round"/>
<path d="M195.059 185.315C190.749 179.466 184.412 175.728 177.208 174.786L176.938 174.754C161.953 172.956 147.948 183.967 145.723 199.298C143.505 214.582 153.814 228.475 168.725 230.344C168.772 230.351 168.818 230.355 168.865 230.362C176.126 231.232 183.369 229.162 189.264 224.524C195.159 219.887 199.002 213.245 200.08 205.818C201.152 198.446 199.365 191.163 195.059 185.315ZM188.287 202.842C188.61 199.704 188.52 196.573 188.031 193.521C190.289 192.899 192.51 192.047 194.671 190.965C196.586 194.848 197.492 199.308 197.097 203.945L188.283 202.842H188.287ZM196.619 207.17C195.655 211.649 193.538 215.743 190.476 219.093C188.725 217.529 186.849 216.167 184.872 215.017C186 212.648 186.881 210.143 187.496 207.533C187.611 207.044 187.715 206.555 187.808 206.066L196.615 207.17H196.619ZM193.071 188.198C191.216 189.103 189.307 189.829 187.377 190.369C186.525 187.051 185.181 183.859 183.362 180.886C183.082 180.426 182.787 179.977 182.485 179.531C186.849 181.31 190.497 184.366 193.071 188.198ZM176.173 191.483L178.046 179.031C178.995 180.174 179.868 181.389 180.644 182.662C182.28 185.333 183.466 188.169 184.232 191.08C181.55 191.551 178.844 191.684 176.176 191.483H176.173ZM184.886 194.244C185.31 196.965 185.382 199.722 185.116 202.446L174.717 201.145L175.684 194.711C178.729 194.955 181.823 194.801 184.882 194.244H184.886ZM174.893 178.639L173.02 191.091C170.385 190.627 167.815 189.833 165.367 188.719C167.779 184.757 171.004 181.325 174.89 178.639H174.893ZM172.539 194.316L171.572 200.75L161.162 199.445C161.226 199.136 161.295 198.823 161.367 198.514C161.935 196.102 162.754 193.784 163.807 191.598C166.593 192.888 169.53 193.798 172.539 194.316ZM171.086 203.971L170.119 210.405C167.042 210.16 163.915 210.319 160.824 210.887C160.421 208.191 160.364 205.43 160.659 202.662L171.086 203.971ZM169.634 213.629L167.722 226.347C166.773 225.204 165.899 223.989 165.123 222.716C163.459 219.999 162.237 217.08 161.46 214.05C164.181 213.561 166.924 213.424 169.634 213.629ZM170.871 226.742L172.783 214.025C175.443 214.492 178.042 215.301 180.511 216.433C178.132 220.419 174.893 223.964 170.871 226.742ZM173.268 210.797L174.235 204.362L184.642 205.667C184.11 208.374 183.24 211.023 182.054 213.539C179.25 212.235 176.295 211.318 173.268 210.797ZM170.479 178.007C167.326 180.638 164.656 183.762 162.56 187.256C160.849 186.256 159.221 185.081 157.693 183.744C157.937 183.539 158.182 183.334 158.437 183.136C162.017 180.322 166.158 178.575 170.479 178.007ZM158.268 197.849C158.175 198.248 158.088 198.647 158.006 199.05L149.185 197.946C150.148 193.467 152.265 189.373 155.328 186.023C157.1 187.604 158.998 188.981 161 190.142C159.821 192.579 158.901 195.16 158.268 197.853V197.849ZM157.693 211.613C155.457 212.235 153.254 213.083 151.115 214.154C149.206 210.276 148.304 205.815 148.703 201.167L157.506 202.27C157.157 205.416 157.222 208.554 157.693 211.613ZM152.714 216.926C154.544 216.03 156.42 215.312 158.326 214.772C159.174 218.176 160.54 221.451 162.402 224.496C162.6 224.823 162.808 225.143 163.02 225.463C158.779 223.669 155.227 220.671 152.714 216.926ZM175.655 227.055C178.711 224.435 181.299 221.347 183.333 217.907C185.012 218.895 186.611 220.049 188.11 221.365C187.866 221.57 187.622 221.775 187.37 221.972C183.883 224.715 179.861 226.44 175.659 227.055H175.655Z" fill="#B880FF"/>
<path d="M230.02 58.4974C230.02 58.4974 190.21 104.282 182.222 103.969C174.807 103.678 183.229 92.7107 187.632 85.1657C192.036 77.617 197.316 68.3106 191.029 66.9267C184.739 65.5428 175.493 71.0461 175.493 71.0461C175.493 71.0461 166.248 73.3431 168.009 85.0399C169.771 96.7367 151.636 93.9688 151.636 93.9688C151.636 93.9688 140.824 89.5223 144.742 71.0749C149.522 48.5583 182.352 22.3969 182.352 22.3969C182.352 22.3969 194.049 19.3774 210.149 31.7033C227.212 44.7696 230.023 58.4938 230.023 58.4938L230.02 58.4974Z" fill="#B880FF"/>
<mask id="mask5_8368_5834" style="mask-type:luminance" maskUnits="userSpaceOnUse" x="143" y="22" width="88" height="82">
<path d="M230.02 58.4974C230.02 58.4974 190.21 104.282 182.222 103.969C174.807 103.678 183.229 92.7107 187.632 85.1657C192.036 77.617 197.316 68.3106 191.029 66.9267C184.739 65.5428 175.493 71.0461 175.493 71.0461C175.493 71.0461 166.248 73.3431 168.009 85.0399C169.771 96.7367 151.636 93.9688 151.636 93.9688C151.636 93.9688 140.824 89.5223 144.742 71.0749C149.522 48.5583 182.352 22.3969 182.352 22.3969C182.352 22.3969 194.049 19.3774 210.149 31.7033C227.212 44.7696 230.023 58.4938 230.023 58.4938L230.02 58.4974Z" fill="white"/>
</mask>
<g mask="url(#mask5_8368_5834)">
<path d="M159.702 44.6188C145.496 66.4632 145.133 74.8458 145.874 83.3182C146.356 88.8395 149.242 92.3658 149.242 92.3658C149.242 92.3658 143.904 88.8611 143.897 77.8221C143.886 61.7579 159.702 44.6188 159.702 44.6188Z" fill="white"/>
</g>
<path d="M230.02 58.4974C230.02 58.4974 190.21 104.282 182.222 103.969C174.807 103.678 183.229 92.7107 187.632 85.1657C192.036 77.617 197.316 68.3106 191.029 66.9267C184.739 65.5428 175.493 71.0461 175.493 71.0461C175.493 71.0461 166.248 73.3431 168.009 85.0399C169.771 96.7367 151.636 93.9688 151.636 93.9688C151.636 93.9688 140.824 89.5223 144.742 71.0749C149.522 48.5583 182.352 22.3969 182.352 22.3969C182.352 22.3969 194.049 19.3774 210.149 31.7033C227.212 44.7696 230.023 58.4938 230.023 58.4938L230.02 58.4974Z" stroke="black" stroke-width="1.2" stroke-linecap="round" stroke-linejoin="round"/>
<path d="M153.71 58.5801C146.079 72.2503 145.658 82.1427 149.602 90.7805C153.541 99.4183 164.192 100.507 164.192 100.507" fill="#B880FF"/>
<mask id="mask6_8368_5834" style="mask-type:luminance" maskUnits="userSpaceOnUse" x="147" y="58" width="18" height="43">
<path d="M153.71 58.5801C146.079 72.2503 145.658 82.1427 149.602 90.7805C153.541 99.4183 164.192 100.507 164.192 100.507" fill="white"/>
</mask>
<g mask="url(#mask6_8368_5834)">
<path d="M153.29 59.3457C144.929 81.2008 151.895 93.976 155.486 97.3693C159.077 100.763 149.86 96.9056 147.51 84.0334C145.159 71.1611 153.29 59.3493 153.29 59.3493V59.3457Z" fill="white"/>
</g>
<path d="M153.71 58.5801C146.079 72.2503 145.658 82.1427 149.602 90.7805C153.541 99.4183 164.192 100.507 164.192 100.507" stroke="black" stroke-width="1.2" stroke-linecap="round" stroke-linejoin="round"/>
<path d="M158.638 59.1263C148.512 78.2459 154.034 91.6574 160.4 98.6237C165.745 104.472 174.3 106.924 176.626 105.101" fill="#B880FF"/>
<mask id="mask7_8368_5834" style="mask-type:luminance" maskUnits="userSpaceOnUse" x="153" y="59" width="24" height="47">
<path d="M158.638 59.1263C148.512 78.2459 154.034 91.6574 160.4 98.6237C165.745 104.472 174.3 106.924 176.626 105.101" fill="white"/>
</mask>
<g mask="url(#mask7_8368_5834)">
<path d="M158.196 59.9707C153.958 71.3764 154.742 84.4319 158.491 91.7937C162.916 100.482 170.54 105.033 170.54 105.033C170.54 105.033 159.249 101.923 154.943 89.7447C149.831 75.2873 158.196 59.9707 158.196 59.9707Z" fill="white"/>
</g>
<path d="M158.638 59.1263C148.512 78.2459 154.034 91.6574 160.4 98.6237C165.745 104.472 174.3 106.924 176.626 105.101" stroke="black" stroke-width="1.2" stroke-linecap="round" stroke-linejoin="round"/>
<path d="M191.029 66.9229C191.029 66.9229 186.946 65.7798 183.294 68.3068C177.571 72.2681 175.084 78.1201 174.3 82.7715C173.588 87.0059 174.361 89.2238 176.626 92.4302C178.89 95.6365 184.487 102.204 182.869 104.972C181.126 107.959 175.77 106.356 168.387 99.8134C162.6 94.6876 159.709 87.6134 161.029 78.4292C162.222 70.1365 167.193 61.1356 167.193 61.1356" fill="#B880FF"/>
<mask id="mask8_8368_5834" style="mask-type:luminance" maskUnits="userSpaceOnUse" x="160" y="61" width="32" height="46">
<path d="M191.029 66.9229C191.029 66.9229 186.946 65.7798 183.294 68.3068C177.571 72.2681 175.084 78.1201 174.3 82.7715C173.588 87.0059 174.361 89.2238 176.626 92.4302C178.89 95.6365 184.487 102.204 182.869 104.972C181.126 107.959 175.77 106.356 168.387 99.8134C162.6 94.6876 159.709 87.6134 161.029 78.4292C162.222 70.1365 167.193 61.1356 167.193 61.1356" fill="white"/>
</mask>
<g mask="url(#mask8_8368_5834)">
<path d="M166.863 61.7573C159.584 80.823 163.39 90.5068 168.297 96.7327C173.204 102.958 179.332 106.301 179.332 106.301C179.332 106.301 170.655 104.713 163.649 94.087C157.952 85.442 161.133 78.03 162.276 72.9472C163.419 67.8645 166.863 61.7537 166.863 61.7537V61.7573Z" fill="white"/>
</g>
<path d="M191.029 66.9229C191.029 66.9229 186.946 65.7798 183.294 68.3068C177.571 72.2681 175.084 78.1201 174.3 82.7715C173.588 87.0059 174.361 89.2238 176.626 92.4302C178.89 95.6365 184.487 102.204 182.869 104.972C181.126 107.959 175.77 106.356 168.387 99.8134C162.6 94.6876 159.709 87.6134 161.029 78.4292C162.222 70.1365 167.193 61.1356 167.193 61.1356" stroke="black" stroke-width="1.2" stroke-linecap="round" stroke-linejoin="round"/>
<path d="M169.584 152.079L176.572 105.5" stroke="black" stroke-width="1.2" stroke-linecap="round" stroke-linejoin="round"/>
<path d="M179.005 95.6545C181.971 92.5812 188.236 94.0585 189.631 99.8602C191.029 105.662 188.887 155.893 188.887 155.893" stroke="black" stroke-width="1.2" stroke-linecap="round" stroke-linejoin="round"/>
<path d="M179.005 106.305L178.15 141.705" stroke="black" stroke-width="1.2" stroke-linecap="round" stroke-linejoin="round"/>
<path d="M195.407 144.832C195.407 144.832 194.922 110.677 191.734 98.1314C191.026 95.3492 188.883 93.3362 186.558 92.6209C181.205 90.9818 178.826 95.4103 178.826 95.4103" stroke="black" stroke-width="1.2" stroke-linecap="round" stroke-linejoin="round"/>
<path d="M214.236 132.269C214.236 132.269 199.383 96.8769 193.294 92.2759C187.208 87.6784 182.873 92.47 182.873 92.47" stroke="black" stroke-width="1.2" stroke-linecap="round" stroke-linejoin="round"/>
<path d="M184.555 103.282L195.131 134.566" stroke="black" stroke-width="1.2" stroke-linecap="round" stroke-linejoin="round"/>
<path d="M216.022 144.735C216.022 144.735 203.089 115.152 195.407 100.461C193.977 97.7252 191.86 93.2715 188.862 92.2758C182.869 90.2808 181.575 95.1659 181.575 95.1659" stroke="black" stroke-width="1.2" stroke-linecap="round" stroke-linejoin="round"/>
<path d="M184.713 138.358L183.121 103.282" stroke="black" stroke-width="1.2" stroke-linecap="round" stroke-linejoin="round"/>
<path d="M169.584 104.713L157.93 134.315" stroke="black" stroke-width="1.2" stroke-linecap="round" stroke-linejoin="round"/>
<path d="M178.826 95.4137C178.826 95.4137 185.494 93.5481 187.507 99.9213C189.519 106.295 186.953 138.556 186.953 138.556" stroke="black" stroke-width="1.2" stroke-linecap="round" stroke-linejoin="round"/>
<path d="M164.681 133.211L171.91 105.4" stroke="black" stroke-width="1.2" stroke-linecap="round" stroke-linejoin="round"/>
<path d="M208.042 118.265L212.866 129.066" stroke="#B880FF" stroke-width="1.2" stroke-linecap="round" stroke-linejoin="round"/>
<path d="M204.944 120.141L209.283 129.62" stroke="#B880FF" stroke-width="1.2" stroke-linecap="round" stroke-linejoin="round"/>
<path d="M194.778 126.388L195.001 131.18" stroke="#B880FF" stroke-width="1.2" stroke-linecap="round" stroke-linejoin="round"/>
<path d="M192.78 127.618L194.034 131.32" stroke="#B880FF" stroke-width="1.2" stroke-linecap="round" stroke-linejoin="round"/>
</svg>
